<svg width="1481" height="622" viewBox="0 0 1481 622" fill="none" xmlns="http://www.w3.org/2000/svg">
<path d="M1147.91 161.657C1152.56 160.263 1159.76 158.87 1169.51 157.476C1179.73 156.083 1190.19 155.386 1200.87 155.386C1211.09 155.386 1220.15 156.083 1228.05 157.476C1236.41 158.87 1243.38 161.657 1248.95 165.838C1254.52 170.018 1258.7 175.825 1261.49 183.258C1264.74 190.226 1266.37 199.516 1266.37 211.13V360.941C1266.37 379.987 1271.02 393.691 1280.31 402.052C1289.6 409.949 1303.07 413.898 1320.72 413.898C1331.4 413.898 1340 412.969 1346.5 411.111C1353.47 409.253 1358.81 407.394 1362.53 405.536V161.657C1367.17 160.263 1374.37 158.87 1384.13 157.476C1394.35 156.083 1404.8 155.386 1415.48 155.386C1425.7 155.386 1434.76 156.083 1442.66 157.476C1451.02 158.87 1457.99 161.657 1463.56 165.838C1469.14 170.018 1473.32 175.825 1476.11 183.258C1479.36 190.226 1480.98 199.516 1480.98 211.13V422.956C1480.98 446.183 1471.23 463.603 1451.72 475.216C1435.46 485.436 1415.95 493.101 1393.19 498.21C1370.89 503.785 1346.5 506.572 1320.02 506.572C1294.94 506.572 1271.71 503.785 1250.34 498.21C1229.44 492.636 1211.32 484.042 1195.99 472.429C1180.66 460.816 1168.82 445.951 1160.46 427.834C1152.09 409.253 1147.91 386.955 1147.91 360.941V161.657Z" fill="#3D9A51"/>
<path d="M917.723 146.327C944.201 146.327 968.124 149.811 989.493 156.779C1011.33 163.282 1029.67 171.876 1044.54 182.56C1053.83 189.064 1061.03 196.264 1066.14 204.161C1071.72 212.058 1074.5 222.278 1074.5 234.82V478.7C1074.5 503.32 1069.86 524.456 1060.57 542.108C1051.28 560.225 1038.5 575.09 1022.24 586.703C1006.45 598.781 987.635 607.607 965.802 613.182C944.433 618.756 921.439 621.543 896.819 621.543C854.546 621.543 821.332 615.737 797.177 604.123C773.021 592.975 760.943 574.626 760.943 549.076C760.943 538.392 763.033 528.869 767.214 520.508C771.86 512.611 776.969 506.572 782.544 502.391C796.015 509.823 811.113 516.094 827.836 521.204C845.023 526.314 862.676 528.869 880.792 528.869C905.877 528.869 925.852 524.688 940.717 516.327C955.582 507.965 963.015 494.494 963.015 475.912V464.764C943.969 473.125 920.742 477.306 893.335 477.306C872.431 477.306 852.456 474.287 833.41 468.248C814.829 461.744 798.338 451.989 783.937 438.982C770.001 425.511 758.62 408.323 749.794 387.419C741.433 366.515 737.252 341.663 737.252 312.862C737.252 284.525 741.665 259.905 750.491 239.001C759.782 218.097 772.324 200.909 788.118 187.438C804.377 173.502 823.423 163.282 845.256 156.779C867.553 149.811 891.709 146.327 917.723 146.327ZM960.924 247.363C957.673 245.505 952.795 243.646 946.291 241.788C940.253 239.93 932.588 239.001 923.297 239.001C900.535 239.001 883.347 245.505 871.734 258.511C860.585 271.054 855.011 289.171 855.011 312.862C855.011 339.805 860.585 359.315 871.734 371.393C883.347 383.006 897.98 388.813 915.632 388.813C934.678 388.813 949.775 384.4 960.924 375.574V247.363Z" fill="#3D9A51"/>
<path d="M553.102 62.7118C553.102 45.0596 558.908 30.1946 570.522 18.1167C582.599 6.03891 598.393 0 617.904 0C637.414 0 652.976 6.03891 664.589 18.1167C676.667 30.1946 682.706 45.0596 682.706 62.7118C682.706 80.3641 676.667 95.2291 664.589 107.307C652.976 119.385 637.414 125.424 617.904 125.424C598.393 125.424 582.599 119.385 570.522 107.307C558.908 95.2291 553.102 80.3641 553.102 62.7118ZM677.132 494.727C672.022 495.656 664.357 496.817 654.137 498.211C644.382 500.069 634.395 500.998 624.175 500.998C613.955 500.998 604.665 500.301 596.303 498.907C588.406 497.514 581.67 494.727 576.096 490.546C570.522 486.365 566.108 480.791 562.857 473.823C560.07 466.39 558.676 456.867 558.676 445.254V161.657C563.786 160.728 571.218 159.567 580.974 158.173C591.193 156.315 601.413 155.386 611.633 155.386C621.852 155.386 630.911 156.083 638.808 157.476C647.169 158.87 654.137 161.657 659.712 165.838C665.286 170.019 669.467 175.825 672.254 183.258C675.506 190.226 677.132 199.517 677.132 211.13V494.727Z" fill="#3D9A51"/>
<path d="M301.663 391.602C295.624 396.712 287.727 400.893 277.972 404.144C268.682 406.931 257.765 408.325 245.223 408.325C228.499 408.325 214.564 406.235 203.415 402.054C192.731 397.873 185.763 390.673 182.511 380.453C169.504 339.574 158.82 306.592 150.458 281.508C142.097 255.958 135.593 233.661 130.948 214.615H127.464C126.07 242.023 124.909 267.107 123.98 289.869C123.515 312.167 123.051 334 122.586 355.368C122.586 376.737 122.122 398.338 121.193 420.171C120.728 442.004 119.799 466.159 118.405 492.638C112.366 494.96 104.469 496.818 94.7142 498.212C84.9591 500.07 75.2039 500.999 65.4487 500.999C45.0093 500.999 28.9829 497.747 17.3696 491.244C6.22087 484.741 0.646484 472.895 0.646484 455.707L20.8536 100.34C24.5699 94.3013 32.6992 87.7979 45.2416 80.8299C57.7839 73.8619 75.4362 70.3779 98.1982 70.3779C122.818 70.3779 142.097 74.3264 156.032 82.2235C169.968 89.656 180.188 101.966 186.692 119.154C190.872 130.303 195.285 143.077 199.931 157.478C205.041 171.878 209.918 186.743 214.564 202.073C219.673 217.402 224.551 232.732 229.196 248.061C233.842 262.926 238.022 276.398 241.739 288.476H245.223C256.371 249.455 267.52 211.828 278.669 175.594C289.818 138.896 300.037 108.237 309.328 83.6171C316.296 79.9008 325.122 76.8814 335.806 74.5587C346.955 71.7715 359.265 70.3779 372.737 70.3779C395.499 70.3779 414.08 73.8619 428.481 80.8299C442.881 87.3333 451.243 96.8563 453.565 109.399C455.423 118.689 457.282 133.09 459.14 152.6C461.462 171.646 463.785 193.247 466.108 217.402C468.43 241.558 470.753 267.107 473.076 294.05C475.398 320.993 477.489 347.007 479.347 372.092C481.67 396.712 483.528 419.474 484.921 440.378C486.315 460.817 487.244 476.611 487.708 487.76C479.811 492.405 471.45 495.657 462.624 497.515C454.262 499.838 443.346 500.999 429.874 500.999C412.222 500.999 397.357 497.98 385.279 491.941C373.201 485.902 366.698 474.056 365.769 456.404C362.982 405.77 361.123 360.246 360.194 319.832C359.73 279.417 358.801 245.507 357.407 218.099H353.923C349.278 236.216 342.542 258.978 333.716 286.385C324.89 313.793 314.206 348.865 301.663 391.602Z" fill="#3D9A51"/>
</svg>
